:SAMPLES-PER-SECOND 30
:FULLY-SPECIFIED
:DEGREES
308
root  3.19871 38.1172 6.93827 -173.824 -20.4043 176.422
RightUpLeg  -9.62874 -10.9612 -22.9179
RightLeg  14.7119 -3.40891 -2.03764
RightFoot  2.75747 -3.81662 30.3436
RightToes  -5.8209e-011 0 -3.6325e-017
Spine  14.5482 2.74747 10.2136
Spine1  13.4958 4.73197 -1.2303
HEad  -20.2359 -24.2094 3.83462
LeftShoulder1  1.07067 -1.54186 -14.3099
LeftArm  11.4349 10.3106 -57.1257
LeftForeArm  58.2356 -78.5761 -65.9895
LeftHand  -1.72651 -2.18778 26.2913
RightShoulder  1.23245 1.87484 16.2707
RightArm  15.4486 1.56282 60.6639
RightForeArm  20.7374 77.5523 80.2544
RightHand  -1.52943 1.2708 -26.3564
LeftUpLeg  -21.4063 -6.44027 9.58536
LeftLeg  28.3679 -0.865942 -0.165683
LeftFoot  -8.72736 0.34739 -13.0706
LeftToes  -3.91115e-011 -2.2622e-010 9.51032e-012
309
root  2.68631 37.9023 7.19249 -175.285 -15.515 176.958
RightUpLeg  -10.7106 -10.4436 -23.4438
RightLeg  14.3283 0.264738 -0.770188
RightFoot  3.07874 -3.95899 30.7594
RightToes  -5.8209e-011 0 -3.6325e-017
Spine  14.8411 2.61716 7.43795
Spine1  14.6459 4.47497 -1.94708
HEad  -20.3551 -19.4709 3.91155
LeftShoulder1  1.14658 -1.94489 -14.1139
LeftArm  12.0677 8.1561 -55.0986
LeftForeArm  58.8405 -78.6696 -67.8176
LeftHand  -1.60692 -1.9918 25.1638
RightShoulder  1.20845 1.82251 16.0222
RightArm  18.1879 2.05311 59.9307
RightForeArm  28.1319 77.7363 84.9472
RightHand  -1.05063 -0.0166762 -22.5409
LeftUpLeg  -19.3667 -3.01553 8.80407
LeftLeg  29.8236 1.38415 1.20342
LeftFoot  -12.0386 -0.00791236 -12.9725
LeftToes  -3.91115e-011 -2.2622e-010 9.51032e-012
310
root  2.20675 37.6434 7.4912 -177.128 -11.4368 177.052
RightUpLeg  -11.3811 -9.36274 -24.2703
RightLeg  14.5809 2.18575 0.088181
RightFoot  3.51293 -4.02059 30.3606
RightToes  -5.8209e-011 0 -3.6325e-017
Spine  15.0626 2.57319 3.86455
Spine1  16.3959 3.76641 -1.50042
HEad  -20.7584 -14.9649 3.7056
LeftShoulder1  1.33467 -2.82234 -14.1798
LeftArm  11.9889 6.55247 -53.2792
LeftForeArm  56.3265 -78.4983 -66.468
LeftHand  -1.46055 -1.64095 24.0479
RightShoulder  1.14065 1.62565 15.5296
RightArm  20.7618 4.44198 59.2837
RightForeArm  32.7662 77.7927 88.9792
RightHand  -0.738928 -0.972878 -19.4097
LeftUpLeg  -17.3137 -0.0255044 7.82819
LeftLeg  31.3665 1.65198 1.44828
LeftFoot  -14.955 -0.29849 -12.3265
LeftToes  -3.91115e-011 -2.2622e-010 9.51032e-012
311
root  1.79143 37.5026 7.76532 -178.49 -8.8327 176.89
RightUpLeg  -11.9139 -8.96414 -24.8548
RightLeg  15.442 0.479175 -0.141389
RightFoot  4.20778 -3.99367 28.8886
RightToes  -5.8209e-011 0 -3.6325e-017
Spine  14.7056 2.50758 0.369071
Spine1  18.3261 2.61415 -0.0203949
HEad  -21.1721 -11.3913 3.11657
LeftShoulder1  1.52956 -3.78092 -14.079
LeftArm  11.703 5.20637 -52.9847
LeftForeArm  50.1265 -77.9156 -60.9475
LeftHand  -1.22462 -0.865289 22.6657
RightShoulder  1.09303 1.55159 14.8562
RightArm  22.8104 7.06132 58.56
RightForeArm  38.3568 77.7948 93.5507
RightHand  -0.69319 -1.00617 -18.2872
LeftUpLeg  -16.0608 1.81184 6.84266
LeftLeg  32.6706 2.06364 1.79697
LeftFoot  -16.3582 -0.377898 -10.7892
LeftToes  -3.91115e-011 -2.2622e-010 9.51032e-012
312
root  1.49338 37.5921 7.96393 -178.957 -7.49928 176.842
RightUpLeg  -12.4832 -10.1741 -24.4521
RightLeg  17.0961 -4.16946 -1.64626
RightFoot  4.16308 -3.68866 26.8316
RightToes  -5.8209e-011 0 -3.6325e-017
Spine  13.8014 2.26659 -1.96775
Spine1  19.7781 1.48223 1.36005
HEad  -21.139 -8.91378 2.82672
LeftShoulder1  1.59326 -4.25794 -13.5578
LeftArm  12.1572 4.12071 -54.0218
LeftForeArm  45.5125 -77.3919 -57.0529
LeftHand  -0.897566 0.366973 20.6849
RightShoulder  1.10607 1.7027 14.4347
RightArm  23.6569 8.32607 58.2118
RightForeArm  45.3245 77.7761 97.7466
RightHand  -0.697771 -0.77156 -17.4738
LeftUpLeg  -15.3695 2.89462 6.25835
LeftLeg  32.4622 2.84616 2.31909
LeftFoot  -16.1581 -0.334605 -10.2384
LeftToes  -3.91115e-011 -2.2622e-010 9.51032e-012
313
root  1.33671 37.8797 8.08981 -178.852 -6.8591 177.191
RightUpLeg  -12.8412 -11.9761 -22.9401
RightLeg  19.4623 -7.76296 -3.23188
RightFoot  3.24134 -3.30479 25.6169
RightToes  -5.8209e-011 0 -3.6325e-017
Spine  12.8335 1.80731 -2.37829
Spine1  20.3341 0.894737 1.46371
HEad  -20.3414 -7.21855 3.15244
LeftShoulder1  1.53196 -4.16886 -12.9407
LeftArm  13.8462 3.64912 -55.1891
LeftForeArm  45.5532 -77.5134 -58.566
LeftHand  -0.631047 1.56865 19.1504
RightShoulder  1.14942 1.89393 14.4883
RightArm  23.2732 7.56726 58.5423
RightForeArm  52.0381 77.7186 101.523
RightHand  -0.599083 -0.932526 -15.5135
LeftUpLeg  -14.561 3.42931 6.3348
LeftLeg  30.2968 3.13824 2.34557
LeftFoot  -14.8559 -0.240444 -10.7071
LeftToes  -3.91115e-011 -2.2622e-010 9.51032e-012
314
root  1.32459 38.256 8.16772 -178.592 -6.54109 177.661
RightUpLeg  -12.5687 -12.2003 -21.1762
RightLeg  21.9002 -7.55094 -3.52533
RightFoot  2.98485 -3.327 26.1975
RightToes  -5.8209e-011 0 -3.6325e-017
Spine  12.1496 1.31715 -1.71195
Spine1  20.1884 0.787497 0.513664
HEad  -19.1086 -5.86333 3.51685
LeftShoulder1  1.45471 -3.88707 -12.6287
LeftArm  16.0514 4.21906 -55.8449
LeftForeArm  49.3576 -78.0775 -64.4954
LeftHand  -0.568066 2.04285 19.5522
RightShoulder  1.15923 1.89479 14.6858
RightArm  22.8616 5.48675 59.2331
RightForeArm  59.1647 77.4789 106.891
RightHand  -0.472726 -1.24632 -13.1821
LeftUpLeg  -13.3829 3.6398 6.75239
LeftLeg  26.9035 2.98728 2.00066
LeftFoot  -12.7427 -0.059444 -10.9647
LeftToes  -3.91115e-011 -2.2622e-010 9.51032e-012
315
root  1.46073 38.6359 8.21531 -178.221 -6.70345 177.671
RightUpLeg  -11.3716 -10.4051 -20.0407
RightLeg  23.3226 -6.04016 -3.06772
RightFoot  4.24542 -3.75707 27.1869
RightToes  -5.8209e-011 0 -3.6325e-017
Spine  11.5379 1.01559 -1.99567
Spine1  19.8464 0.474878 0.280789
HEad  -18.041 -4.76396 3.53581
LeftShoulder1  1.40753 -3.63265 -12.6726
LeftArm  17.6131 5.84754 -56.0481
LeftForeArm  55.2348 -78.6141 -72.8723
LeftHand  -0.648691 1.87675 21.3049
RightShoulder  1.12682 1.74523 14.6808
RightArm  23.5232 3.40581 59.7009
RightForeArm  68.4662 76.9615 114.066
RightHand  -0.408335 -1.32896 -11.5989
LeftUpLeg  -12.1613 4.12149 7.00915
LeftLeg  23.1592 2.37745 1.47116
LeftFoot  -9.98622 0.198515 -11.4816
LeftToes  -3.91115e-011 -2.2622e-010 9.51032e-012
316
root  1.69483 38.9518 8.24798 -177.488 -7.98891 177.173
RightUpLeg  -9.25583 -9.06898 -19.594
RightLeg  22.6982 -7.20332 -3.48802
RightFoot  5.35468 -4.09281 27.6409
RightToes  -5.8209e-011 0 -3.6325e-017
Spine  10.6118 0.750646 -3.63378
Spine1  19.4991 -0.518893 1.82467
HEad  -17.3365 -4.51236 3.70859
LeftShoulder1  1.36794 -3.34904 -12.9346
LeftArm  18.3083 7.7747 -55.7073
LeftForeArm  61.8155 -78.8855 -82.7422
LeftHand  -0.684385 1.89303 22.5922
RightShoulder  1.09933 1.62883 14.6295
RightArm  24.5866 1.94779 59.5713
RightForeArm  78.8303 76.266 120.969
RightHand  -0.341845 -1.55505 -10.1961
LeftUpLeg  -11.7586 4.52269 6.9866
LeftLeg  19.9351 0.683195 0.623739
LeftFoot  -7.16671 0.530292 -13.258
LeftToes  -3.91115e-011 -2.2622e-010 9.51032e-012
317
root  1.93179 39.0865 8.29009 -176.452 -10.4145 176.885
RightUpLeg  -6.98283 -10.4885 -19.277
RightLeg  20.5611 -9.85557 -4.29058
RightFoot  4.27982 -3.93874 28.4035
RightToes  -5.8209e-011 0 -3.6325e-017
Spine  9.57397 0.219278 -4.42019
Spine1  18.7638 -1.62514 3.51791
HEad  -16.8516 -5.71914 4.38585
LeftShoulder1  1.33322 -3.08988 -13.2162
LeftArm  18.7658 8.94751 -54.7505
LeftForeArm  66.1086 -78.8115 -91.0636
LeftHand  -0.633096 2.23001 23.0835
RightShoulder  1.07545 1.5134 14.6512
RightArm  24.7502 0.919507 58.7388
RightForeArm  86.3058 75.5458 126.104
RightHand  -0.215522 -2.31683 -7.72987
LeftUpLeg  -13.0439 2.62816 7.2038
LeftLeg  18.8772 -0.951419 -0.0266824
LeftFoot  -5.59376 0.802764 -15.3254
LeftToes  -3.91115e-011 -2.2622e-010 9.51032e-012
318
root  2.12036 38.8727 8.3922 -175.906 -12.268 177.363
RightUpLeg  -6.47775 -13.1426 -18.7816
RightLeg  20.4473 -8.3523 -3.60923
RightFoot  0.848232 -3.23092 29.6993
RightToes  -5.8209e-011 0 -3.6325e-017
Spine  9.5063 -0.221907 -2.79933
Spine1  17.1165 -1.67551 3.12695
HEad  -16.536 -7.75645 4.94322
LeftShoulder1  1.32013 -3.01382 -13.2554
LeftArm  19.2673 9.25785 -53.7403
LeftForeArm  66.6307 -78.6422 -94.8609
LeftHand  -0.619982 2.31225 23.2199
RightShoulder  0.988898 1.20649 14.1553
RightArm  24.435 0.450223 57.3142
RightForeArm  89.3674 74.7894 129.827
RightHand  -0.0973505 -3.12079 -4.26484
LeftUpLeg  -15.727 -2.09135 8.30487
LeftLeg  21.605 -0.354909 0.199294
LeftFoot  -6.72797 0.690371 -16.0079
LeftToes  -3.91115e-011 -2.2622e-010 9.51032e-012
